<?xml version="1.0" standalone="no"?>
<!DOCTYPE svg PUBLIC "-//W3C//DTD SVG 20010904//EN"
 "http://www.w3.org/TR/2001/REC-SVG-20010904/DTD/svg10.dtd">
<svg version="1.0" xmlns="http://www.w3.org/2000/svg"
 width="300.000000pt" height="300.000000pt" viewBox="0 0 300.000000 300.000000"
 preserveAspectRatio="xMidYMid meet">
<metadata>
Created by potrace 1.10, written by Peter Selinger 2001-2011
</metadata>
<g transform="translate(0.000000,300.000000) scale(0.100000,-0.100000)"
fill="#000000" stroke="none">
<path d="M1570 2570 c0 -11 7 -20 15 -20 8 0 15 9 15 20 0 11 -7 20 -15 20 -8
0 -15 -9 -15 -20z"/>
<path d="M1456 2527 c-27 -19 -16 -51 18 -57 43 -7 47 -33 5 -28 -19 1 -35 -1
-37 -7 -1 -5 15 -11 36 -13 70 -5 85 51 18 64 -46 8 -46 24 -1 24 36 0 47 13
19 24 -24 9 -38 7 -58 -7z"/>
<path d="M1330 2517 c-31 -15 -39 -66 -15 -91 18 -18 80 -22 90 -6 11 17 -5
32 -20 20 -15 -12 -55 -5 -55 10 0 4 20 11 45 14 50 8 55 16 25 46 -23 23 -36
24 -70 7z m51 -32 c0 -5 -12 -11 -26 -13 -18 -2 -25 1 -25 13 0 12 7 15 25 13
14 -2 26 -7 26 -13z"/>
<path d="M1566 2499 c-10 -52 -7 -79 9 -79 11 0 15 12 15 45 0 25 0 48 1 52 0
4 -4 9 -9 11 -5 1 -12 -11 -16 -29z"/>
<path d="M1137 2508 c-16 -5 -26 -15 -24 -22 3 -7 13 -40 22 -73 l17 -61 44
15 c57 19 88 57 80 98 -4 16 -14 36 -23 43 -20 14 -77 15 -116 0z m95 -25 c33
-29 15 -71 -38 -87 -17 -5 -23 0 -32 33 -16 51 -15 59 6 64 33 9 46 7 64 -10z"/>
<path d="M1636 2504 c-37 -37 -1 -103 49 -90 28 7 33 -5 10 -24 -14 -12 -29
-11 -67 5 -13 5 -18 3 -18 -8 0 -26 89 -38 108 -14 9 11 32 103 32 128 0 6 -9
8 -19 4 -11 -3 -22 -1 -26 5 -9 15 -51 12 -69 -6z m81 -31 c9 -22 -21 -46 -46
-38 -23 7 -30 50 -8 58 19 6 48 -4 54 -20z"/>
<path d="M1776 2439 c-16 -43 -17 -52 -5 -60 10 -6 16 -1 23 19 12 38 25 52
47 52 22 0 25 -24 9 -66 -8 -21 -8 -29 2 -35 15 -9 36 38 37 83 1 22 -4 29
-26 33 -16 4 -36 10 -45 16 -10 5 -19 9 -21 9 -2 0 -11 -23 -21 -51z"/>
<path d="M987 2443 c-4 -3 -7 -19 -7 -35 0 -30 -10 -34 -40 -18 -19 10 -50 4
-50 -9 0 -5 18 -14 41 -21 l41 -14 -6 -49 c-5 -38 -4 -48 6 -45 7 3 14 21 16
41 3 40 8 43 45 26 18 -8 30 -8 43 -1 18 10 18 11 -1 17 -78 26 -78 25 -72 72
4 40 -1 52 -16 36z"/>
<path d="M1916 2398 c-21 -30 -20 -54 4 -78 21 -21 70 -28 70 -10 0 6 -8 10
-19 10 -21 0 -48 27 -37 37 4 4 20 -1 35 -10 40 -24 51 -21 51 11 0 57 -73 85
-104 40z m84 -34 c0 -13 -4 -12 -31 2 -24 12 -28 18 -18 24 17 11 49 -6 49
-26z"/>
<path d="M2037 2319 c-16 -23 -26 -47 -23 -55 8 -22 19 -17 38 17 14 24 24 30
45 27 15 -2 28 2 30 10 3 7 -4 12 -15 12 -11 0 -22 7 -26 15 -8 23 -19 18 -49
-26z"/>
<path d="M836 2341 c-3 -5 10 -28 29 -51 19 -23 35 -45 35 -49 0 -5 -9 -16
-21 -27 -21 -19 -21 -19 -64 28 -33 37 -45 45 -53 35 -8 -10 -2 -24 26 -54 49
-55 72 -60 111 -27 40 34 39 61 -5 112 -36 42 -48 49 -58 33z"/>
<path d="M696 2261 c-4 -5 17 -52 46 -103 63 -112 56 -104 69 -91 7 7 -7 38
-42 99 -60 104 -65 109 -73 95z"/>
<path d="M2122 2183 c2 -10 10 -18 18 -18 8 0 16 8 18 18 2 12 -3 17 -18 17
-15 0 -20 -5 -18 -17z"/>
<path d="M2265 2148 c-22 -16 -47 -33 -55 -38 -12 -7 -12 -11 -3 -21 9 -9 20
-6 48 15 39 30 43 24 18 -29 -9 -19 -15 -37 -12 -39 2 -2 23 -1 47 4 51 9 54
-1 8 -30 -22 -13 -33 -26 -29 -36 7 -19 6 -19 58 21 25 19 53 39 62 43 9 6 13
14 8 22 -5 8 -24 10 -66 5 l-59 -7 25 55 c33 77 19 87 -50 35z"/>
<path d="M644 2145 c-4 -9 -5 -17 -3 -18 2 -2 29 -22 61 -45 42 -31 59 -38 66
-29 7 9 -8 25 -54 60 -52 39 -65 45 -70 32z"/>
<path d="M594 2078 c-7 -11 3 -21 55 -50 39 -22 49 -45 27 -66 -16 -16 -20
-15 -67 11 -46 26 -69 28 -69 7 0 -14 87 -60 113 -60 42 0 78 61 58 99 -9 16
-89 71 -105 71 -3 0 -8 -5 -12 -12z"/>
<path d="M2358 1969 c-67 -39 -24 -138 50 -115 47 15 44 93 -4 115 -29 13 -25
13 -46 0z m58 -44 c8 -20 -13 -45 -38 -45 -21 0 -33 22 -24 45 7 20 55 19 62
0z"/>
<path d="M2435 1837 c-82 -24 -82 -24 -67 -39 7 -7 12 -24 12 -38 0 -34 17
-50 55 -50 17 0 36 5 43 12 16 16 15 75 0 84 -9 6 -5 10 12 14 14 3 26 14 28
23 4 20 5 20 -83 -6z m33 -64 c4 -28 -32 -50 -54 -32 -15 12 -19 41 -7 53 16
15 58 1 61 -21z"/>
<path d="M602 1813 c2 -10 10 -18 18 -18 8 0 16 8 18 18 2 12 -3 17 -18 17
-15 0 -20 -5 -18 -17z"/>
<path d="M495 1721 c3 -11 1 -22 -5 -26 -20 -13 -9 -22 33 -28 24 -3 51 -9 60
-13 13 -4 17 -1 17 14 0 16 -7 21 -32 24 -23 2 -36 10 -43 26 -12 27 -39 30
-30 3z"/>
<path d="M2541 1697 c-9 -11 -8 -17 4 -27 12 -10 16 -9 21 5 9 23 -10 40 -25
22z"/>
<path d="M2438 1683 c-30 -3 -38 -8 -38 -24 0 -15 5 -19 18 -15 9 2 36 8 60
11 26 4 42 12 39 18 -4 13 -25 16 -79 10z"/>
<path d="M486 1618 c-33 -46 -7 -98 47 -98 31 0 60 37 55 71 -5 36 -26 34 -30
-2 -2 -18 -9 -34 -15 -37 -10 -3 -11 8 -7 42 6 42 5 46 -14 46 -12 0 -28 -10
-36 -22z m35 -21 c-1 -4 -1 -16 -1 -27 0 -23 -18 -27 -26 -5 -8 20 3 48 17 43
6 -2 10 -7 10 -11z"/>
<path d="M2539 1626 c-2 -2 -31 -6 -64 -9 -33 -4 -61 -6 -62 -7 -2 0 -3 -6 -3
-12 0 -10 21 -12 80 -10 71 3 80 6 80 23 0 17 -19 26 -31 15z"/>
<path d="M2430 1540 c-21 -21 -26 -55 -10 -80 12 -20 24 -6 24 32 1 17 7 33
15 36 11 4 12 -5 7 -42 -7 -42 -5 -46 13 -46 47 0 69 70 33 103 -25 23 -58 21
-82 -3z m75 -40 c0 -13 -6 -25 -12 -27 -9 -3 -13 6 -13 27 0 21 4 30 13 28 6
-3 12 -15 12 -28z"/>
<path d="M486 1481 c-13 -14 -16 -30 -12 -61 2 -23 6 -43 8 -45 2 -2 36 -1 76
2 52 4 72 10 72 19 0 8 -11 14 -25 14 -22 0 -25 3 -19 24 13 51 -64 87 -100
47z m72 -37 c2 -11 -4 -26 -12 -33 -31 -26 -71 14 -45 45 17 21 53 14 57 -12z"/>
<path d="M2395 1316 c-10 -65 0 -95 37 -111 54 -22 100 12 113 86 6 34 5 36
-32 47 -21 6 -55 14 -75 17 l-36 7 -7 -46z m124 -11 c1 -2 -1 -16 -6 -31 -25
-74 -115 -48 -96 27 5 19 11 20 52 14 25 -4 48 -8 50 -10z"/>
<path d="M506 1328 c-9 -12 -16 -29 -16 -38 0 -51 69 -79 103 -42 35 38 8 102
-43 102 -18 0 -34 -8 -44 -22z m72 -39 c4 -36 -25 -47 -52 -20 -16 17 -17 22
-6 36 20 24 54 15 58 -16z"/>
<path d="M548 1193 c-38 -15 -68 -32 -68 -39 0 -18 3 -18 85 11 39 13 70 30
70 36 0 20 -17 19 -87 -8z"/>
<path d="M2351 1164 c-22 -28 -28 -64 -11 -64 6 0 15 11 20 24 9 25 28 42 36
33 3 -3 -2 -19 -10 -36 -22 -42 -20 -51 13 -51 54 0 79 62 41 100 -28 28 -64
25 -89 -6z m79 -38 c0 -13 -7 -26 -15 -30 -16 -6 -20 10 -9 38 9 24 24 19 24
-8z"/>
<path d="M630 1148 c0 -9 5 -20 10 -23 12 -7 13 -55 2 -55 -5 0 -16 18 -25 41
-14 36 -18 39 -36 29 -32 -17 -32 -65 1 -92 28 -24 44 -23 74 7 28 28 26 55
-7 90 -16 17 -19 17 -19 3z m-10 -80 c0 -5 -7 -8 -15 -8 -19 0 -29 24 -20 48
6 15 8 14 20 -8 8 -14 14 -28 15 -32z"/>
<path d="M2285 1040 c-6 -9 23 -61 62 -109 2 -3 9 1 15 7 9 9 6 18 -15 40 -15
15 -27 31 -27 36 0 4 20 4 44 1 29 -5 46 -3 51 5 10 16 7 18 -61 25 -43 5 -64
4 -69 -5z"/>
<path d="M647 1008 c-28 -6 -46 -15 -44 -22 4 -12 13 -12 67 0 l35 7 -18 -24
c-31 -44 -36 -55 -28 -68 11 -17 83 83 75 104 -7 17 -18 17 -87 3z"/>
<path d="M2232 953 c-11 -4 -42 -54 -42 -68 0 -3 7 -5 15 -5 8 0 15 6 15 14 0
17 26 39 41 34 7 -2 1 -16 -16 -36 -14 -17 -24 -36 -20 -42 10 -17 61 -11 78
8 45 49 -8 120 -71 95z m66 -59 c-4 -20 -34 -41 -44 -31 -8 8 24 47 38 47 5 0
8 -7 6 -16z"/>
<path d="M760 931 c0 -6 9 -20 20 -31 18 -18 28 -50 15 -50 -3 0 -20 16 -37
36 -30 33 -33 35 -45 18 -7 -10 -13 -26 -13 -36 0 -25 36 -58 63 -58 49 0 76
70 40 102 -28 23 -43 30 -43 19z m7 -97 c-12 -13 -37 6 -37 28 l0 22 22 -21
c12 -13 19 -25 15 -29z"/>
<path d="M2146 862 c-3 -5 21 -34 52 -65 42 -42 61 -54 72 -47 11 7 2 20 -45
64 -62 57 -70 62 -79 48z"/>
<path d="M817 808 c-28 -22 -37 -61 -20 -94 13 -26 71 -81 76 -73 2 2 24 29
49 60 l47 56 -41 31 c-44 34 -83 40 -111 20z m90 -36 l22 -17 -35 -39 c-33
-38 -34 -39 -54 -21 -29 26 -34 54 -14 76 21 23 52 24 81 1z"/>
<path d="M2081 794 c-37 -30 -38 -42 -10 -78 25 -32 59 -33 87 -3 29 31 28 61
-4 86 -34 27 -36 26 -73 -5z m59 -19 c18 -22 8 -50 -19 -50 -32 0 -49 28 -32
49 17 20 35 20 51 1z"/>
<path d="M1982 777 c-9 -10 -8 -19 4 -35 14 -20 14 -22 -4 -22 -25 0 -52 -31
-52 -58 0 -27 33 -62 58 -62 11 0 27 9 37 20 10 11 24 20 32 20 15 0 17 22 3
36 -5 5 -22 33 -38 62 -23 42 -31 50 -40 39z m39 -93 c9 -11 10 -20 2 -32 -13
-22 -43 -22 -56 -1 -24 38 25 68 54 33z"/>
<path d="M1020 680 c-36 -36 -17 -100 31 -100 16 0 18 -3 9 -19 -14 -26 -13
-41 3 -41 12 0 77 118 77 140 0 6 -8 10 -17 10 -10 0 -27 7 -37 15 -27 20 -42
19 -66 -5z m71 -26 c15 -19 2 -47 -26 -52 -25 -5 -38 13 -31 42 7 30 36 35 57
10z"/>
<path d="M1816 641 c-14 -16 -15 -19 -2 -24 8 -3 20 1 26 9 14 16 36 18 45 4
3 -5 -12 -17 -34 -26 -46 -18 -49 -24 -23 -47 26 -23 55 -21 80 6 26 28 27 45
6 75 -19 28 -74 30 -98 3z m82 -53 c-5 -16 -48 -24 -48 -10 0 11 17 20 38 21
8 1 12 -5 10 -11z"/>
<path d="M1160 635 c0 -3 16 -11 35 -19 39 -17 49 -42 13 -32 -70 19 -68 20
-68 -7 0 -49 71 -75 103 -39 37 40 4 102 -53 102 -16 0 -30 -2 -30 -5z m64
-76 c14 -13 -24 -24 -42 -12 -29 18 -26 34 5 27 15 -4 32 -10 37 -15z"/>
<path d="M1746 621 c-3 -5 -1 -23 6 -41 10 -29 9 -34 -12 -50 -16 -12 -19 -19
-10 -25 6 -4 16 -3 22 3 6 6 16 8 23 6 22 -9 25 12 9 65 -14 48 -26 62 -38 42z"/>
<path d="M1297 538 c-30 -69 -32 -83 -16 -83 6 0 21 25 34 55 14 30 25 53 26
50 0 -3 6 -30 12 -60 16 -74 36 -76 66 -8 22 50 24 51 31 28 4 -14 8 -38 9
-53 1 -25 24 -47 37 -35 2 3 -3 40 -12 82 -21 94 -39 100 -73 24 -18 -40 -25
-48 -28 -33 -26 119 -45 126 -86 33z"/>
<path d="M1600 580 c0 -15 5 -20 18 -18 9 2 17 10 17 18 0 8 -8 16 -17 18 -13
2 -18 -3 -18 -18z"/>
</g>
</svg>
